<?xml version="1.0" encoding="UTF-8"?><svg id="a" xmlns="http://www.w3.org/2000/svg" viewBox="0 0 3626.42 900.43"><defs><style>.b{fill:#fff;}.c{fill:#7bc61a;}.d{fill:#51bf5d;}</style></defs><g><path class="d" d="M3623.42,86.19v448.24h-1465.12v-41.33c0-12.53,.75-26.71-4.31-38.49-4.61-10.72-12.92-13.24-21.02-20.26-15.96-13.81-64.81-108.16-80.74-134.76-32.84-54.9-65.69-109.8-98.54-164.72-16.22-17.97-34.07-34.27-53.24-48.68h1722.97Z"/><path class="c" d="M3626.42,537.43h-1471.12v-44.33c0-1.42,0-2.86,.02-4.32,.08-11.36,.15-23.11-4.08-32.99-2.88-6.7-7.44-9.86-12.71-13.52-2.44-1.69-4.96-3.44-7.52-5.66-11.91-10.31-39.6-60.47-61.84-100.77-8.1-14.67-15.09-27.35-19.5-34.71-20.03-33.49-40.06-66.97-60.1-100.46l-38.29-64c-15.93-17.62-33.63-33.8-52.62-48.07l-7.18-5.4h1734.95v454.24Zm-1465.12-6h1459.12V89.19H1909.26c16.73,13.2,32.4,27.86,46.66,43.67l.2,.22,.15,.25,38.44,64.26c20.04,33.49,40.07,66.98,60.1,100.46,4.46,7.46,11.48,20.17,19.61,34.9,19.68,35.65,49.41,89.52,60.52,99.14,2.32,2.01,4.71,3.66,7.02,5.27,5.52,3.83,11.24,7.79,14.8,16.08,4.73,11.03,4.64,23.97,4.57,35.4,0,1.44-.02,2.87-.02,4.28v38.33Z"/></g><g><g><path class="d" d="M197.76,213.31h455.83c6.16,0,12.32,.05,18.48,0,.27,0,.54,0,.81,0,5.82,0,11.94-2.53,16.05-6.65s6.9-10.4,6.65-16.05c-.55-12.3-9.97-22.7-22.7-22.7H217.04c-6.16,0-12.32-.05-18.48,0-.27,0-.54,0-.81,0-5.82,0-11.94,2.53-16.05,6.65s-6.9,10.4-6.65,16.05c.55,12.3,9.97,22.7,22.7,22.7Z"/><path class="d" d="M665.91,218.33c-2.06,0-4.12,0-6.17-.01-2.05,0-4.1-.01-6.15-.01H197.76c-14.84,0-27.01-12.07-27.7-27.48-.3-6.7,2.96-14.66,8.11-19.81,5.08-5.08,12.4-8.11,19.59-8.11h.77c4.12-.03,8.25-.02,12.37-.01,2.05,0,4.1,.01,6.15,.01h455.83c14.84,0,27.01,12.07,27.7,27.48,.3,6.7-2.96,14.66-8.11,19.81-5.08,5.08-12.4,8.11-19.59,8.11h-.77c-2.06,.02-4.13,.02-6.19,.02Zm-468.15-45.42c-4.52,0-9.32,1.99-12.52,5.18s-5.37,8.35-5.19,12.29c.46,10.22,8.07,17.92,17.71,17.92h455.83c2.06,0,4.11,0,6.17,.01,4.09,0,8.18,.02,12.27-.01h.84c4.52,0,9.32-1.99,12.52-5.18,3.18-3.18,5.37-8.35,5.19-12.29-.46-10.22-8.07-17.92-17.71-17.92H217.04c-2.06,0-4.11,0-6.17-.01-4.09,0-8.18-.02-12.27,.01h-.84Z"/></g><g><path class="d" d="M498.12,357.23h248.55c9.71,0,19.43,.1,29.14,0,.42,0,.85,0,1.27,0,11.87,0,23.25-10.44,22.7-22.7-.55-12.3-9.97-22.7-22.7-22.7H58.14c-9.71,0-19.43-.1-29.14,0-.42,0-.85,0-1.27,0-11.87,0-23.25,10.44-22.7,22.7,.55,12.3,9.97,22.7,22.7,22.7H498.12Z"/><path class="d" d="M766.08,362.27c-3.27,0-6.52-.01-9.72-.02-3.23-.01-6.47-.02-9.7-.02H27.72c-14.84,0-27-12.07-27.7-27.48-.31-6.9,2.34-13.65,7.46-19,5.42-5.67,12.8-8.92,20.24-8.92h.44c.26,0,.52,0,.78,0,6.51-.07,13.11-.04,19.5-.02,3.23,.01,6.46,.02,9.7,.02H777.09c14.84,0,27.01,12.07,27.7,27.48,.31,6.9-2.34,13.65-7.46,19-5.42,5.67-12.8,8.92-20.24,8.92h-.44c-.26,0-.52,0-.78,0-3.25,.03-6.53,.04-9.78,.04ZM27.72,316.82c-4.66,0-9.52,2.18-13.01,5.83-3.21,3.36-4.88,7.5-4.69,11.65,.46,10.22,8.07,17.92,17.71,17.92H746.67c3.24,0,6.49,.01,9.73,.02,6.35,.02,12.92,.04,19.36-.02,.31,0,.61,0,.92,0h.41c4.66,0,9.52-2.18,13.01-5.83,3.21-3.36,4.88-7.49,4.69-11.65-.46-10.22-8.07-17.92-17.71-17.92H58.14c-3.24,0-6.49-.01-9.73-.02-6.35-.02-12.92-.04-19.36,.02-.31,0-.61,0-.92,0h-.41Z"/></g><g><path class="d" d="M571.87,501.14h59.04c3.89,0,7.78,.02,11.67,0,.17,0,.34,0,.51,0,5.82,0,11.94-2.53,16.05-6.65,2.21-2.06,3.78-4.49,4.69-7.31,1.42-2.71,2.07-5.62,1.96-8.75-.26-5.87-2.19-11.96-6.65-16.05-4.44-4.08-9.9-6.65-16.05-6.65H355.18c-3.89,0-7.78-.02-11.67,0-.17,0-.34,0-.51,0-5.82,0-11.94,2.53-16.05,6.65-2.21,2.06-3.78,4.49-4.69,7.31-1.42,2.71-2.07,5.62-1.96,8.75,.26,5.87,2.19,11.96,6.65,16.05,4.44,4.08,9.9,6.65,16.05,6.65h228.88Z"/><path class="d" d="M638.69,506.15c-1.3,0-2.6,0-3.9,0H343c-7.04,0-13.76-2.76-19.43-7.97-4.97-4.56-7.9-11.49-8.26-19.51-.15-3.89,.64-7.55,2.33-10.92,1.19-3.42,3.15-6.43,5.84-8.96,5.08-5.04,12.37-8.05,19.52-8.05h.48c2.61-.01,5.21,0,7.82,0h291.8c7.04,0,13.76,2.76,19.43,7.97,4.97,4.56,7.9,11.49,8.26,19.51,.15,3.88-.64,7.55-2.33,10.92-1.19,3.43-3.15,6.44-5.84,8.96-5.08,5.04-12.37,8.05-19.52,8.05h-.48c-1.31,0-2.62,0-3.92,0Zm-295.69-45.41c-4.52,0-9.32,1.99-12.52,5.18l-.13,.13c-1.59,1.48-2.69,3.18-3.34,5.19l-.13,.4-.2,.38c-1.02,1.94-1.47,3.97-1.38,6.23,.14,3.07,.98,8.83,5.03,12.56,3.85,3.54,8.12,5.33,12.67,5.33h291.82c2.58,0,5.17,.01,7.75,0h.54c4.52,0,9.32-1.99,12.52-5.18l.13-.13c1.59-1.48,2.69-3.18,3.34-5.19l.13-.4,.2-.38c1.02-1.94,1.47-3.97,1.38-6.23-.14-3.07-.98-8.83-5.03-12.56-3.85-3.54-8.12-5.33-12.67-5.33H351.28c-2.58,0-5.16-.01-7.75,0h-.54Z"/></g><g><path class="d" d="M2097.31,713.93v-172.69c0-7.45,0-14.91,0-22.36,0-16.05,.51-33.63-8.34-47.79-4.88-7.81-11.66-12.64-18.78-17.85-1.39-1.22-2.66-2.5-3.85-3.9-5.45-7.48-10.22-15.49-14.95-23.43-6.86-11.53-13.43-23.22-19.95-34.95-12.6-22.65-25.21-45.19-38.52-67.43-22.64-37.84-45.28-75.68-67.91-113.52-5.89-9.84-15.17-18.18-23.5-26-7.9-7.4-16.19-14.32-24.76-20.94-16.64-12.85-34.18-24.32-52.94-33.84-19.2-9.74-39.39-17.86-60.07-23.87-18.88-5.48-39.21-8.67-58.9-8.32-12.21,.22-24.43,.79-36.63,1.19-21.35,.69-42.7,1.38-64.05,2.08-13.03,.42-26.07,.8-39.1,1.27-16.33,.59-32.84,7.12-43.51,19.89-9.47,11.32-14.88,24.68-14.94,39.57-.02,4.86,0,9.72,0,14.58v501.01c0,11.87,10.44,23.25,22.7,22.7,12.3-.55,22.7-9.97,22.7-22.7V180.23c0-6.35-.02-12.69,0-19.04,0-.8,.04-1.61,.08-2.41,.27-1.18,.59-2.35,.97-3.5,.54-1.03,1.13-2.04,1.76-3.02,.78-.85,1.59-1.67,2.44-2.45,1.02-.66,2.06-1.27,3.14-1.83,1.23-.4,2.48-.72,3.74-1,4.87-.35,9.81-.3,14.67-.46,12.14-.39,24.29-.79,36.43-1.18,26.12-.85,52.24-1.69,78.36-2.54,11.33-.37,22.44-.3,33.73,.98,19.22,3.01,37.85,8.98,55.84,16.34,23.26,10.08,45.24,22.89,65.48,38.15,13.15,10.38,25.46,21.76,36.83,34.05,14.48,24.21,28.97,48.42,43.45,72.63,13.26,22.16,26.84,44.16,39.75,66.52,16.08,27.86,30.74,56.52,47.53,83.97,3.81,6.24,7.7,12.47,12.08,18.34,2.5,3.35,5.05,6.99,8.03,9.99,3.75,3.77,8.28,6.69,12.63,9.76,.41,.37,.81,.75,1.2,1.14,.04,.07,.08,.14,.12,.21,.53,1.7,.97,3.42,1.3,5.17,.79,9.02,.35,18.2,.35,27.25v171.93c0,10.97,.12,21.95,0,32.92,0,.22-.02,.43-.02,.64-.08,.31-.16,.62-.25,.92-.14,.25-.28,.49-.43,.73-.2,.2-.39,.4-.6,.6-.24,.15-.48,.29-.73,.43-.37,.11-.75,.21-1.12,.3-4.19,.2-8.45-.03-12.6-.03h-125.41c-11.87,0-23.25,10.44-22.7,22.7,.55,12.3,9.97,22.7,22.7,22.7h129.66c2.72,0,5.44,.04,8.16,0,21.56-.32,40.38-14.34,46.75-34.96,3.09-10.01,1.98-21.9,1.98-32.27Z"/><path class="d" d="M2045.86,786.17c-.92,0-1.83,0-2.75,0-.9,0-1.8,0-2.7,0h-129.66c-14.84,0-27.01-12.07-27.7-27.48-.31-6.9,2.34-13.65,7.46-19,5.42-5.67,12.8-8.92,20.24-8.92h125.41c1.47,0,2.95,.03,4.43,.06,2.09,.04,4.24,.08,6.33,.03,.06-6.88,.04-13.85,.01-20.62-.01-3.66-.03-7.33-.03-10.99v-171.93c0-2.41,.03-4.82,.06-7.24,.08-6.39,.17-12.99-.37-19.31-.22-1.12-.49-2.23-.8-3.31-.63-.44-1.26-.88-1.89-1.31-3.79-2.63-7.72-5.36-11.17-8.83-2.78-2.8-5.11-5.95-7.35-8.99l-1.14-1.54c-4.55-6.09-8.59-12.59-12.34-18.72-10.12-16.55-19.6-33.77-28.77-50.43-6.1-11.08-12.41-22.54-18.82-33.65-8.74-15.14-17.95-30.38-26.86-45.12-4.29-7.11-8.59-14.21-12.85-21.33l-43.18-72.18c-11.06-11.92-23.12-23.05-35.86-33.11-19.88-14.99-41.54-27.61-64.37-37.5-19.82-8.11-37.67-13.34-54.56-15.99-9.55-1.08-19.7-1.37-32.9-.94l-114.79,3.72c-1.69,.05-3.39,.08-5.09,.11-2.98,.05-6.06,.11-9.02,.31-.86,.19-1.71,.42-2.52,.67-.68,.37-1.35,.76-2,1.17-.52,.49-1.03,1.01-1.54,1.55-.39,.62-.76,1.26-1.12,1.91-.24,.76-.45,1.51-.62,2.24-.03,.57-.05,1.15-.05,1.73-.01,4.22,0,8.45,0,12.67v502.76c0,14.84-12.06,27-27.47,27.7-6.9,.31-13.65-2.34-19-7.46-5.67-5.42-8.92-12.8-8.92-20.24V170.77c0-3.25-.01-6.5,0-9.75,.07-15.67,5.48-30.05,16.11-42.76,10.95-13.09,28.14-21,47.16-21.68,8.68-.31,17.36-.58,26.04-.85,4.36-.14,8.72-.27,13.08-.41l64.05-2.08c4.06-.13,8.11-.28,12.17-.43,8.03-.3,16.34-.61,24.53-.75,19.13-.34,40.02,2.61,60.38,8.52,20.5,5.95,41,14.09,60.94,24.21,18.21,9.24,35.79,20.47,53.74,34.34,9.41,7.27,17.63,14.22,25.12,21.25l1.8,1.68c7.85,7.34,16.75,15.66,22.58,25.4l67.91,113.52c13.31,22.26,25.85,44.66,38.6,67.57,6.21,11.16,12.91,23.1,19.88,34.82,4.54,7.64,9.24,15.53,14.57,22.88,.97,1.12,1.98,2.14,3.07,3.11l.45,.33c6.97,5.1,14.18,10.37,19.43,18.77,9.17,14.67,9.14,32.39,9.11,48.02v197.47c0,2.08,.04,4.21,.09,6.46,.19,8.7,.4,18.56-2.3,27.28-7.01,22.67-27.69,38.13-51.46,38.48-.93,.01-1.86,.02-2.79,.02Zm-135.11-45.42c-4.66,0-9.52,2.18-13.01,5.83-3.21,3.36-4.88,7.49-4.69,11.65,.46,10.22,8.07,17.92,17.71,17.92h129.66c.92,0,1.83,0,2.75,0,1.78,0,3.56,.02,5.34,0,19.43-.29,36.33-12.92,42.05-31.43,2.22-7.17,2.03-15.79,1.85-24.12-.05-2.21-.1-4.49-.1-6.68v-197.49c.03-14.98,.06-30.48-7.58-42.7-4.23-6.76-10.08-11.04-16.85-16l-.98-.74c-1.56-1.37-2.99-2.81-4.36-4.41l-.24-.31c-5.66-7.77-10.51-15.93-15.2-23.82-7.03-11.83-13.78-23.85-20.02-35.07-12.7-22.84-25.2-45.17-38.44-67.3l-67.91-113.52c-5.1-8.53-13.1-16-20.83-23.23l-1.81-1.69c-7.26-6.81-15.24-13.55-24.39-20.63-17.45-13.48-34.51-24.38-52.15-33.33-19.38-9.83-39.3-17.75-59.2-23.52-19.41-5.63-39.27-8.43-57.42-8.12-8.1,.14-16.35,.45-24.34,.75-4.08,.15-8.15,.3-12.22,.44l-64.05,2.08c-4.36,.14-8.73,.28-13.09,.41-8.67,.27-17.33,.54-26,.85-16.2,.58-30.72,7.18-39.85,18.1-9.09,10.87-13.72,23.11-13.78,36.39-.01,3.23,0,6.46,0,9.7v505.88c0,4.66,2.18,9.52,5.84,13.01,3.36,3.21,7.49,4.88,11.65,4.69,10.22-.46,17.92-8.07,17.92-17.71V173.89c0-4.24-.01-8.48,0-12.72,0-.89,.04-1.77,.09-2.65l.02-.43,.09-.42c.29-1.28,.66-2.61,1.09-3.94l.13-.41,.2-.38c.61-1.16,1.28-2.3,1.99-3.4l.23-.35,.28-.31c.89-.98,1.82-1.91,2.74-2.76l.31-.28,.35-.23c1.13-.74,2.32-1.43,3.54-2.07l.38-.2,.41-.13c1.35-.43,2.77-.81,4.22-1.13l.69-.1c3.34-.24,6.69-.3,9.92-.36,1.65-.03,3.3-.06,4.94-.11l114.79-3.72c13.74-.45,24.37-.14,34.45,1.01l.21,.03c17.72,2.77,36.35,8.22,56.96,16.65l.09,.04c23.59,10.22,45.96,23.26,66.5,38.75l.09,.07c13.3,10.49,25.89,22.13,37.41,34.58l.35,.38,43.72,73.07c4.25,7.11,8.54,14.2,12.83,21.29,8.93,14.78,18.17,30.07,26.96,45.29,6.47,11.21,12.8,22.71,18.92,33.83,9.11,16.56,18.54,33.68,28.54,50.03,3.63,5.93,7.53,12.2,11.82,17.96l1.17,1.57c2.04,2.75,4.14,5.6,6.41,7.89,2.81,2.83,6.19,5.18,9.77,7.66,.73,.51,1.46,1.02,2.19,1.53l.45,.36c.48,.43,.94,.87,1.4,1.32l.48,.48,.71,1.25,.17,.52c.58,1.84,1.07,3.76,1.45,5.72l.07,.51c.61,6.89,.52,13.85,.43,20.57-.03,2.38-.06,4.75-.06,7.11v171.93c0,3.65,.01,7.3,.03,10.96,.03,7.21,.05,14.67-.03,22.02,0,.19,0,.38-.02,.57l-.02,.72-.13,.53c-.09,.36-.19,.73-.3,1.09l-.16,.56-.29,.51c-.16,.29-.33,.57-.5,.86l-.29,.48-.39,.41c-.23,.24-.46,.47-.7,.7l-.41,.4-.49,.3c-.28,.17-.57,.34-.86,.5l-.51,.29-.56,.16c-.44,.13-.88,.24-1.32,.35l-.47,.12-.49,.02c-2.91,.14-5.8,.09-8.6,.03-1.42-.03-2.84-.05-4.24-.05h-125.41Z"/></g><g><path class="d" d="M1929.61,472.02c.54,0,1.08,.02,1.62,.02,6.9-.03,12.35-1.72,18.49-4.51,6.6-3,11.45-8.37,15.57-14.15,4.23-5.94,5.77-13.23,6.38-20.34,.62-7.25-1.75-14.87-5.12-21.19-.43-.8-.92-1.58-1.39-2.36-2.45-4.1-4.9-8.19-7.35-12.29-9.83-16.44-19.67-32.88-29.5-49.31-11.74-19.63-23.49-39.26-35.23-58.89-8.26-13.81-16.52-27.62-24.78-41.42-2.82-4.72-5.46-9.38-9.39-13.38-7.59-7.72-18.24-11.9-29-11.95-1.08,0-2.15,0-3.23,0h-212.93c-.94,0-1.88,0-2.81,0-3.66,.03-7.41,.48-10.93,1.45-6.85,1.89-14.12,5.98-18.77,11.43-2.29,2.69-4.7,5.56-6.22,8.81-2.84,6.04-3.78,9.75-4.51,16.34-.17,1.54-.12,3.04-.05,4.58,.05,1.24,.04,2.49,.06,3.74,.27,16.3,.55,32.6,.82,48.9,.38,22.77,.76,45.54,1.14,68.31,.24,14.24,.48,28.48,.71,42.72,.07,3.94,.47,8,1.84,11.71,1.29,3.46,2.62,6.98,4.8,9.98,3.69,5.09,6.38,7.76,11.45,11.47,5.05,3.7,11.03,5.49,17.14,6.32,1.32,.25,2.67,.41,4.07,.42,6.27,.07,12.54,.14,18.81,.21,15.97,.18,31.95,.36,47.92,.54,21.74,.25,43.49,.49,65.24,.74,23.23,.26,46.47,.53,69.7,.79,20.86,.24,41.73,.47,62.59,.71,14.22,.16,28.44,.32,42.66,.48,3.41,.04,6.81,.08,10.22,.12Zm-63.33-46.12c-13.99-.16-27.98-.32-41.97-.48-15.3-.17-30.61-.35-45.91-.52-15.47-.18-30.94-.35-46.41-.53-14.49-.16-28.99-.33-43.48-.49-12.21-.14-24.42-.28-36.63-.42-8.79-.1-17.57-.2-26.36-.3-2.34-.03-4.69-.06-7.03-.09-.05-3.27-.11-6.54-.16-9.81-.22-13.42-.45-26.84-.67-40.25-.27-16.15-.54-32.3-.81-48.45-.23-13.75-.46-27.5-.69-41.25-.09-5.21-.05-10.45-.21-15.66,.07,0,.14,0,.21,0h187.59c7.89,0,15.77-.03,23.66,0,.32,.55,.64,1.09,.96,1.63,2.42,4.05,4.84,8.09,7.26,12.14,8.13,13.6,16.27,27.19,24.4,40.79,9.84,16.44,19.68,32.89,29.52,49.33,8.47,14.16,16.95,28.33,25.42,42.49,2.5,4.17,5.01,8.34,7.5,12.51-7.36-.08-14.71-.17-22.07-.25-11.37-.13-22.75-.26-34.12-.39Z"/><path class="d" d="M1931.11,477.04c-.34,0-.69,0-1.03-.01l-10.74-.12-306.92-3.48c-1.59-.02-3.16-.18-4.82-.49-7.81-1.08-14.12-3.45-19.28-7.22-5.54-4.05-8.59-7.11-12.55-12.57-2.64-3.65-4.19-7.82-5.44-11.17-1.38-3.71-2.06-7.96-2.15-13.36l-2.68-159.93c0-.43-.01-.86-.01-1.29,0-.77-.01-1.54-.04-2.31-.08-1.83-.12-3.49,.08-5.34,.82-7.4,1.97-11.59,4.95-17.92,1.73-3.67,4.17-6.66,6.94-9.92,4.98-5.84,12.92-10.7,21.24-13,3.77-1.04,7.89-1.59,12.22-1.63,.65,0,1.29,0,1.94,0h214.93c.73,0,1.45,0,2.18,0,12.33,.05,24.19,4.95,32.54,13.44,4.02,4.09,6.76,8.69,9.41,13.13l39.05,65.27,58.86,98.38c.41,.67,.81,1.34,1.18,2.03,3.04,5.71,6.49,14.51,5.68,23.96-.83,9.75-3.14,17-7.29,22.81-3.83,5.38-9.29,12.04-17.57,15.8-5.62,2.55-12,4.92-20.54,4.96-.05,0-.09,0-.14,0Zm-1.45-10.02h.58c.32,.01,.65,.02,.97,.02,6.29-.03,11.12-1.64,16.44-4.06,4.77-2.17,8.95-6.02,13.57-12.5,3.06-4.29,4.79-9.97,5.46-17.86,.47-5.48-1.15-12.02-4.55-18.42-.28-.52-.59-1.03-.9-1.54l-7.72-12.89-90.24-150.83c-2.45-4.12-4.77-8.01-7.94-11.23-6.49-6.6-15.77-10.41-25.46-10.46-.71,0-1.42,0-2.12,0h-214.97c-.61,0-1.21,0-1.82,0-3.46,.03-6.71,.46-9.64,1.27-6.37,1.76-12.62,5.54-16.3,9.85-1.87,2.2-4.21,4.93-5.5,7.69-2.49,5.3-3.37,8.47-4.06,14.76-.13,1.15-.09,2.36-.03,3.82,.04,.88,.05,1.77,.05,2.65,0,.4,0,.81,.01,1.21l2.68,159.93c.07,4.24,.56,7.43,1.53,10.05,1.09,2.93,2.32,6.25,4.16,8.79,3.34,4.61,5.66,6.93,10.35,10.36,3.82,2.79,8.68,4.56,14.86,5.4l.27,.04c1.11,.21,2.15,.32,3.18,.33l317.13,3.6Zm1.69-35.38l-317.78-3.62-2.42-144.63c-.03-2.04-.05-4.08-.07-6.13-.02-3.11-.05-6.33-.14-9.47l-.16-5.19,5.32,.04h187.64c2.74,0,5.47,0,8.21,0,5.15,0,10.31-.01,15.46,0h2.86l1.53,2.63c.28,.48,.56,.96,.84,1.44l86.6,144.75c1.37,2.29,2.75,4.59,4.13,6.88l7.97,13.29Zm-65.02-10.74l47.24,.54c-.97-1.61-1.94-3.23-2.9-4.84l-86.13-143.96c-4.19,0-8.38,0-12.58,0-2.74,0-5.48,0-8.22,0h-182.7c.02,1.53,.03,3.04,.04,4.54,.02,2.01,.03,4.03,.06,6.04l2.26,134.92,200.96,2.28,41.97,.48Z"/></g><g><path class="d" d="M954.42,725.11c-1.39-5.67-3.22-11.22-5.46-16.61-2.97-7.16-6.08-14.17-10.11-20.8-3.97-6.53-8.63-12.67-13.52-18.52-3.65-4.37-7.63-8.48-11.89-12.26-10.07-8.95-21.31-16.81-33.62-22.35-6.98-3.14-14.09-6.04-21.47-8.1-7.69-2.14-15.55-3.31-23.47-4.23-14.03-1.63-28.3-.49-42.11,2.3-5.86,1.18-11.63,2.83-17.23,4.92-7.22,2.69-14.38,5.79-21.12,9.55-6.63,3.7-12.63,8.15-18.62,12.8-4.6,3.57-8.94,7.45-12.97,11.66-5.27,5.51-10.02,11.57-14.41,17.8-3.3,4.69-6.25,9.62-8.81,14.75-6.15,12.31-10.88,25.43-12.95,39.06-1.18,7.76-2.11,15.52-2.12,23.38-.02,.61,0,1.22,.03,1.82,.14,7.48,1.03,14.9,2.2,22.29,.94,5.94,2.36,11.8,4.23,17.51,4.17,12.75,10.02,25.2,17.83,36.15,4.42,6.2,9.19,12.25,14.49,17.73,5.34,5.52,11.26,10.26,17.35,14.92,10.75,8.2,22.86,14.19,35.53,18.83,5.62,2.06,11.4,3.67,17.27,4.81,7.74,1.51,15.66,2.54,23.55,2.84,6.2,.24,12.42-.02,18.58-.77,7.92-.97,15.75-2.15,23.43-4.34,7.36-2.1,14.48-5.02,21.43-8.2,5.33-2.44,10.47-5.29,15.36-8.51,11.09-7.32,21.48-16.07,29.95-26.34,4.86-5.89,9.5-12.03,13.43-18.58,3.99-6.65,7.08-13.68,10.02-20.85,5.25-12.84,7.87-26.55,8.94-40.34,.48-6.2,.46-12.44-.06-18.63-.67-7.93-1.79-15.91-3.69-23.65Zm-41.98,45.64c-1.3,8.01-3.45,15.86-6.41,23.42-3.27,7.18-7.27,14-11.93,20.36-4.93,6.04-10.46,11.57-16.5,16.5-6.36,4.66-13.18,8.66-20.36,11.93-7.56,2.96-15.41,5.11-23.42,6.41-8.18,.87-16.43,.87-24.6,0-8.01-1.3-15.86-3.45-23.42-6.41-7.18-3.27-13.99-7.27-20.36-11.93-6.04-4.93-11.57-10.46-16.5-16.5-4.66-6.36-8.66-13.18-11.93-20.36-2.96-7.56-5.11-15.41-6.41-23.43-.43-4.08-.66-8.18-.67-12.29,0-4.11,.23-8.21,.67-12.29,1.3-8.01,3.45-15.87,6.41-23.43,3.27-7.18,7.27-14,11.93-20.36,4.93-6.04,10.46-11.56,16.5-16.5,6.36-4.66,13.18-8.66,20.36-11.93,7.56-2.96,15.41-5.1,23.42-6.41,8.18-.87,16.43-.87,24.6,0,8.01,1.3,15.86,3.45,23.42,6.41,7.18,3.27,13.99,7.27,20.36,11.93,6.04,4.93,11.57,10.46,16.5,16.5,4.66,6.36,8.66,13.18,11.93,20.36,2.96,7.56,5.1,15.41,6.41,23.42,.87,8.18,.87,16.43,0,24.6Z"/><path class="d" d="M821.52,900.43c-1.56,0-3.12-.03-4.68-.09-7.69-.3-15.87-1.28-24.31-2.93-6.12-1.19-12.19-2.89-18.03-5.03-14.51-5.31-26.56-11.71-36.85-19.55-5.95-4.54-12.24-9.55-17.92-15.41-4.88-5.05-9.78-11.04-14.96-18.3-7.65-10.72-13.88-23.34-18.51-37.5-1.95-5.94-3.43-12.1-4.41-18.28-1.41-8.89-2.13-16.17-2.26-22.88-.04-.75-.05-1.44-.03-2.1,.02-8.73,1.11-17.05,2.18-24.04,1.98-13.03,6.5-26.67,13.42-40.54,2.66-5.33,5.76-10.51,9.2-15.4,5.05-7.17,9.92-13.18,14.88-18.38,4.09-4.29,8.64-8.37,13.52-12.15,6.82-5.29,12.7-9.56,19.24-13.21,6.28-3.51,13.42-6.74,21.81-9.87,5.83-2.18,11.89-3.9,17.99-5.14,15.53-3.13,30.23-3.93,43.68-2.36,7.23,.84,15.76,2.02,24.23,4.38,8.41,2.35,16.27,5.7,22.18,8.36,11.83,5.32,23.57,13.12,34.89,23.17,4.43,3.94,8.61,8.24,12.41,12.79,5.74,6.87,10.3,13.13,13.95,19.13,4.29,7.05,7.56,14.49,10.46,21.48,2.35,5.66,4.26,11.49,5.7,17.33h0c1.81,7.36,3.05,15.35,3.81,24.43,.54,6.45,.56,12.99,.06,19.44-1.23,15.89-4.27,29.58-9.29,41.85-2.85,6.96-6.08,14.39-10.36,21.53-3.58,5.97-7.98,12.07-13.86,19.2-8.23,9.97-18.67,19.17-31.06,27.33-5.1,3.36-10.49,6.35-16.04,8.89-8.48,3.88-15.51,6.57-22.13,8.46-8.21,2.35-16.48,3.55-24.19,4.5-4.85,.6-9.78,.9-14.7,.9Zm.14-273.94c-8.84,0-18.17,.98-27.9,2.95-5.59,1.13-11.13,2.71-16.47,4.7-7.91,2.95-14.59,5.97-20.43,9.23-6,3.35-11.53,7.37-17.99,12.38-4.48,3.48-8.66,7.23-12.41,11.16-4.62,4.83-9.18,10.47-13.94,17.23-3.15,4.47-5.99,9.22-8.43,14.11-6.46,12.93-10.66,25.57-12.48,37.58-1.01,6.65-2.05,14.54-2.06,22.64v.18c-.02,.4-.01,.83,.02,1.32v.21c.12,6.27,.81,13.13,2.15,21.6,.9,5.66,2.26,11.3,4.04,16.74,4.32,13.2,10.09,24.9,17.15,34.8,4.9,6.86,9.48,12.47,14.01,17.16,5.21,5.39,11.15,10.11,16.79,14.42,9.48,7.23,20.67,13.15,34.22,18.11,5.35,1.96,10.91,3.51,16.51,4.6,7.94,1.55,15.61,2.48,22.78,2.75,5.94,.23,11.92-.02,17.78-.74,7.31-.9,15.11-2.03,22.66-4.19,6.12-1.75,12.71-4.27,20.72-7.94,5.08-2.32,10.02-5.06,14.69-8.14,11.55-7.62,21.26-16.15,28.85-25.35,5.56-6.74,9.69-12.45,13-17.97,3.94-6.56,6.98-13.58,9.68-20.18,4.62-11.3,7.43-24,8.58-38.84,.46-5.92,.44-11.92-.06-17.83-.72-8.55-1.88-16.03-3.56-22.88-1.31-5.34-3.07-10.69-5.22-15.88-2.74-6.62-5.83-13.64-9.76-20.12-3.39-5.57-7.67-11.43-13.08-17.91-3.49-4.17-7.31-8.12-11.38-11.73-10.56-9.38-21.45-16.62-32.35-21.53-5.59-2.51-13-5.68-20.77-7.85-7.8-2.18-15.85-3.29-22.7-4.08-4.09-.48-8.31-.71-12.65-.71Zm-.13,228.52c-4.29,0-8.57-.23-12.83-.68l-.28-.04c-8.35-1.36-16.57-3.61-24.44-6.69l-.25-.11c-7.45-3.39-14.59-7.58-21.24-12.44l-.21-.16c-6.28-5.13-12.07-10.92-17.21-17.21l-.16-.21c-4.87-6.65-9.05-13.79-12.44-21.24l-.11-.25c-3.08-7.87-5.33-16.1-6.69-24.45l-.04-.28c-.45-4.28-.69-8.59-.69-12.81,0-4.24,.24-8.55,.69-12.83l.04-.28c1.36-8.35,3.61-16.58,6.69-24.45l.11-.25c3.39-7.45,7.58-14.59,12.44-21.24l.16-.21c5.13-6.28,10.92-12.07,17.21-17.21l.21-.16c6.65-4.86,13.79-9.05,21.24-12.44l.25-.11c7.87-3.08,16.09-5.33,24.44-6.69l.28-.04c8.51-.9,17.15-.9,25.66,0l.28,.04c8.35,1.36,16.57,3.61,24.44,6.69l.25,.11c7.45,3.39,14.59,7.58,21.24,12.44l.21,.16c6.28,5.13,12.07,10.92,17.21,17.21l.16,.21c4.87,6.65,9.05,13.79,12.44,21.24l.11,.25c3.08,7.87,5.33,16.09,6.69,24.44l.04,.28c.9,8.51,.9,17.15,0,25.66l-.04,.28c-1.36,8.35-3.61,16.57-6.69,24.44l-.11,.25c-3.39,7.45-7.58,14.59-12.44,21.24l-.16,.21c-5.13,6.28-10.92,12.07-17.21,17.21l-.21,.16c-6.65,4.87-13.79,9.05-21.24,12.44l-.25,.11c-7.87,3.08-16.09,5.33-24.44,6.69l-.28,.04c-4.26,.45-8.54,.68-12.83,.68Zm-11.64-10.61c7.72,.81,15.55,.81,23.27,0,7.56-1.24,15.01-3.28,22.14-6.06,6.74-3.08,13.21-6.87,19.25-11.28,5.69-4.66,10.94-9.91,15.6-15.6,4.4-6.03,8.2-12.5,11.28-19.25,2.78-7.13,4.82-14.58,6.06-22.14,.81-7.72,.81-15.55,0-23.27-1.24-7.56-3.28-15.01-6.06-22.14-3.08-6.74-6.87-13.22-11.28-19.25-4.66-5.69-9.91-10.94-15.6-15.6-6.03-4.4-12.5-8.2-19.25-11.28-7.13-2.78-14.58-4.82-22.14-6.06-7.72-.81-15.55-.81-23.27,0-7.56,1.24-15.01,3.28-22.14,6.06-6.74,3.08-13.22,6.87-19.24,11.28-5.69,4.66-10.94,9.91-15.6,15.6-4.4,6.03-8.2,12.51-11.28,19.25-2.78,7.13-4.82,14.58-6.06,22.15-.41,3.89-.62,7.8-.62,11.64,0,3.82,.22,7.73,.62,11.62,1.24,7.56,3.28,15.01,6.06,22.15,3.08,6.74,6.87,13.22,11.28,19.25,4.66,5.69,9.91,10.94,15.6,15.6,6.03,4.4,12.5,8.2,19.25,11.28,7.13,2.78,14.58,4.82,22.14,6.06Z"/></g><g><path class="d" d="M886.25,753.26c-.49-4.15-.96-8.39-2.11-12.43-1.12-3.93-2.81-7.74-4.51-11.43-.91-1.98-1.97-3.88-3.16-5.69-2.19-3.31-4.65-6.49-7.29-9.45-1.47-1.65-3.08-3.19-4.79-4.6-3.1-2.54-6.29-5.11-9.75-7.18-3.45-2.06-7.23-3.54-10.94-5.06-5.96-2.43-12.43-3.37-18.81-3.87-2.29-.18-4.6-.18-6.9,.02-4.12,.34-8.31,.86-12.34,1.82-2.21,.53-4.36,1.25-6.45,2.11-3.77,1.55-7.59,3.05-11.08,5.17-3.39,2.07-6.54,4.59-9.59,7.11-1.66,1.38-3.22,2.88-4.66,4.49-4.12,4.62-8.04,9.77-10.6,15.46-1.64,3.66-3.32,7.4-4.41,11.28-1.12,3.99-1.58,8.17-2.06,12.26-.28,2.35-.38,4.7-.28,7.06,.18,4.22,.78,8.46,1.61,12.59,.44,2.17,1.05,4.31,1.83,6.38,1.4,3.74,2.94,7.53,4.88,11.04,1.97,3.56,4.51,6.68,7.01,9.88,1.33,1.7,2.75,3.32,4.31,4.82,2.86,2.74,6.1,5.17,9.3,7.46,1.81,1.3,3.72,2.45,5.72,3.45,5.59,2.8,11.61,5.28,17.83,6.24,3.59,.55,7.21,1.09,10.84,1.24,.55,.04,1.1,.07,1.65,.06,.92,.03,1.82,0,2.7-.1,3.34-.2,6.68-.71,9.97-1.23,2.26-.36,4.49-.9,6.66-1.62,3.81-1.27,7.57-2.86,11.15-4.67,1.94-.98,3.8-2.1,5.56-3.37,3.25-2.32,6.54-4.79,9.43-7.58,2.9-2.81,5.31-6.08,7.74-9.29,3.76-4.98,6.24-10.66,8.4-16.49,.79-2.14,1.41-4.33,1.84-6.57,.79-4.08,1.39-8.26,1.55-12.42,.09-2.3-.02-4.59-.28-6.88Zm-64.72,24.83c-.86,0-1.72-.04-2.58-.09-1.69-.35-3.36-.8-5-1.36-1.52-.77-2.99-1.62-4.4-2.56-1.28-1.14-2.5-2.36-3.64-3.64-.94-1.42-1.79-2.89-2.56-4.4-.55-1.63-1-3.3-1.35-4.98-.1-1.73-.1-3.46,0-5.19,.35-1.69,.8-3.35,1.35-4.98,.77-1.52,1.62-2.99,2.56-4.4,1.14-1.28,2.36-2.5,3.64-3.64,1.42-.94,2.89-1.79,4.4-2.56,1.63-.55,3.3-1,4.98-1.35,1.73-.1,3.46-.1,5.19,0,1.69,.35,3.35,.8,4.98,1.35,1.52,.77,2.99,1.62,4.4,2.56,1.28,1.14,2.5,2.36,3.64,3.64,.94,1.42,1.79,2.89,2.56,4.4,.55,1.63,1,3.3,1.35,4.98,.1,1.73,.1,3.46,0,5.19-.35,1.69-.8,3.35-1.35,4.98-.77,1.52-1.62,2.99-2.56,4.4-1.14,1.28-2.36,2.5-3.64,3.64-1.42,.94-2.89,1.79-4.4,2.56-1.64,.55-3.31,1-5,1.36-.86,.05-1.72,.09-2.58,.09Z"/><path class="d" d="M822.18,828.5c-.24,0-.49,0-.73-.01-.58,0-1.19-.02-1.86-.07-3.75-.16-7.34-.68-11.31-1.29-7.63-1.17-14.68-4.39-19.31-6.71-2.22-1.11-4.37-2.41-6.39-3.85-3.28-2.35-6.74-4.93-9.85-7.92-1.66-1.59-3.22-3.34-4.79-5.35l-.79-1c-2.31-2.95-4.7-6-6.66-9.53-2.18-3.94-3.85-8.13-5.19-11.71-.87-2.32-1.56-4.72-2.05-7.14-.95-4.69-1.53-9.18-1.71-13.37-.11-2.55,0-5.2,.3-7.87l.07-.58c.48-4.07,.97-8.27,2.14-12.44,1.19-4.23,2.94-8.15,4.65-11.94,2.44-5.43,6.07-10.75,11.44-16.78,1.6-1.79,3.35-3.48,5.2-5.01,2.95-2.44,6.41-5.23,10.17-7.53,3.54-2.16,7.25-3.68,10.85-5.15l.93-.38c2.42-.99,4.84-1.78,7.19-2.35,3.72-.89,7.88-1.51,13.09-1.94,2.56-.21,5.15-.22,7.7-.02,5.74,.45,13.24,1.34,20.31,4.23l.9,.37c3.55,1.44,7.22,2.94,10.72,5.03,3.71,2.22,7.02,4.86,10.36,7.6,1.91,1.57,3.71,3.29,5.35,5.14,2.83,3.18,5.43,6.55,7.72,10.02,1.34,2.02,2.53,4.16,3.54,6.36,1.75,3.82,3.56,7.9,4.77,12.15,1.22,4.27,1.72,8.57,2.21,12.73l.06,.49c.31,2.6,.41,5.18,.31,7.66-.16,4-.69,8.31-1.64,13.18-.48,2.49-1.18,4.97-2.06,7.35-2.05,5.54-4.73,11.98-9.1,17.77l-.48,.63c-2.35,3.12-4.78,6.34-7.77,9.24-3.13,3.03-6.66,5.66-9.99,8.05-1.97,1.41-4.06,2.68-6.22,3.76-3.94,1.99-7.92,3.66-11.83,4.96-2.42,.8-4.93,1.41-7.45,1.81-3.44,.54-6.82,1.05-10.33,1.27-.83,.09-1.66,.13-2.48,.13Zm-.56-10.01h.1c.64,.03,1.28,0,1.96-.07l.25-.02c3.11-.19,6.27-.66,9.5-1.17,1.98-.31,3.96-.79,5.87-1.43,3.45-1.14,6.97-2.62,10.47-4.39,1.7-.86,3.35-1.86,4.9-2.97,3.03-2.17,6.19-4.53,8.86-7.11,2.43-2.35,4.52-5.13,6.74-8.07l.48-.64c3.59-4.75,5.91-10.36,7.7-15.22,.69-1.88,1.24-3.82,1.62-5.79,.85-4.37,1.33-8.18,1.46-11.67,.08-1.96,0-4.01-.25-6.1h0l-.06-.49c-.44-3.77-.9-7.66-1.89-11.15-1.02-3.58-2.59-7.11-4.25-10.72-.8-1.73-1.73-3.42-2.79-5.02-2.03-3.07-4.34-6.06-6.85-8.88-1.3-1.46-2.72-2.82-4.23-4.06-3.04-2.49-6.03-4.89-9.15-6.75-2.85-1.7-6.01-2.99-9.36-4.35l-.91-.37c-5.79-2.37-12.29-3.12-17.32-3.52-2.02-.16-4.07-.15-6.09,.01-4.69,.39-8.37,.93-11.59,1.7-1.85,.44-3.77,1.07-5.72,1.87l-.95,.39c-3.38,1.38-6.57,2.69-9.43,4.43-3.2,1.95-6.2,4.37-9,6.69-1.47,1.21-2.85,2.54-4.11,3.96-4.68,5.24-7.78,9.75-9.77,14.18-1.57,3.5-3.17,7.07-4.16,10.59-.96,3.42-1.41,7.23-1.84,10.91l-.07,.58c-.25,2.14-.33,4.24-.25,6.26,.16,3.67,.67,7.64,1.52,11.82,.39,1.91,.93,3.8,1.61,5.62,1.21,3.24,2.71,7,4.57,10.38,1.57,2.83,3.61,5.44,5.78,8.2l.8,1.02c1.27,1.63,2.53,3.03,3.83,4.29,2.66,2.55,5.78,4.87,8.75,7,1.6,1.14,3.29,2.17,5.04,3.04,6.41,3.21,11.61,5.04,16.36,5.77,3.7,.57,7.03,1.05,10.29,1.19h.16c.42,.04,.84,.06,1.26,.06h.1Zm-.08-35.4h-.02c-.9,0-1.83-.04-2.86-.1l-.36-.02-.36-.08c-1.91-.4-3.79-.91-5.57-1.51l-.34-.12-.32-.16c-1.72-.87-3.37-1.83-4.91-2.86l-.55-.43c-1.43-1.27-2.79-2.63-4.05-4.05l-.43-.55c-1.03-1.54-1.99-3.2-2.86-4.91l-.16-.32-.12-.34c-.6-1.78-1.11-3.65-1.51-5.56l-.08-.36-.02-.37c-.11-1.92-.11-3.87,0-5.79l.02-.37,.08-.36c.4-1.91,.91-3.78,1.51-5.56l.12-.34,.16-.32c.87-1.71,1.83-3.37,2.86-4.91l.43-.55c1.27-1.42,2.63-2.79,4.05-4.06l.55-.43c1.54-1.02,3.19-1.99,4.91-2.86l.32-.16,.34-.12c1.77-.6,3.65-1.11,5.56-1.51l.36-.08,.37-.02c1.92-.11,3.87-.11,5.79,0l.37,.02,.36,.08c1.91,.4,3.78,.91,5.56,1.51l.34,.12,.32,.16c1.72,.87,3.37,1.83,4.91,2.86l.55,.43c1.42,1.26,2.79,2.63,4.06,4.05l.43,.55c1.03,1.54,1.99,3.19,2.86,4.91l.16,.32,.12,.34c.6,1.78,1.11,3.65,1.51,5.56l.08,.36,.02,.37c.11,1.92,.11,3.87,0,5.79l-.02,.37-.08,.36c-.4,1.91-.91,3.78-1.51,5.56l-.11,.34-.16,.32c-.87,1.71-1.83,3.37-2.86,4.91l-.43,.55c-1.27,1.42-2.63,2.79-4.06,4.06l-.55,.43c-1.54,1.02-3.19,1.99-4.91,2.86l-.32,.16-.34,.12c-1.79,.6-3.66,1.11-5.57,1.51l-.36,.07-.36,.02c-1.03,.06-1.97,.1-2.86,.1h-.02Zm-1.91-10.06c.69,.04,1.32,.06,1.91,.06,.6,0,1.23-.02,1.91-.06,1.28-.28,2.53-.62,3.72-1.01,1.15-.6,2.25-1.24,3.29-1.91,.95-.86,1.87-1.78,2.73-2.73,.68-1.04,1.32-2.14,1.91-3.29,.39-1.19,.73-2.43,1.01-3.71,.06-1.28,.06-2.58,0-3.86-.28-1.27-.62-2.52-1.01-3.71-.59-1.14-1.24-2.25-1.91-3.29-.86-.95-1.78-1.87-2.73-2.73-1.04-.68-2.14-1.32-3.29-1.91-1.19-.39-2.43-.73-3.7-1.01-1.28-.06-2.58-.06-3.86,0-1.28,.28-2.52,.62-3.71,1.01-1.15,.59-2.25,1.24-3.29,1.91-.95,.86-1.87,1.78-2.73,2.73-.68,1.04-1.32,2.14-1.91,3.29-.39,1.19-.73,2.43-1.01,3.71-.06,1.28-.06,2.58,0,3.86,.28,1.27,.62,2.52,1.01,3.71,.59,1.14,1.24,2.25,1.91,3.29,.86,.95,1.78,1.87,2.73,2.73,1.04,.68,2.14,1.32,3.29,1.91,1.2,.39,2.45,.73,3.72,1.01Z"/></g><g><path class="d" d="M1850.57,725.11c-1.39-5.67-3.22-11.22-5.46-16.61-2.97-7.16-6.08-14.17-10.11-20.8-3.97-6.53-8.63-12.67-13.52-18.52-3.65-4.37-7.63-8.48-11.89-12.26-10.07-8.95-21.31-16.81-33.62-22.35-6.98-3.14-14.09-6.04-21.47-8.1-7.69-2.14-15.55-3.31-23.47-4.23-14.03-1.63-28.3-.49-42.11,2.3-5.86,1.18-11.63,2.83-17.23,4.92-7.22,2.69-14.38,5.79-21.12,9.55-6.63,3.7-12.63,8.15-18.62,12.8-4.6,3.57-8.94,7.45-12.97,11.66-5.27,5.51-10.02,11.57-14.41,17.8-3.3,4.69-6.25,9.62-8.81,14.75-6.15,12.31-10.88,25.43-12.95,39.06-1.18,7.76-2.11,15.52-2.12,23.38-.02,.61,0,1.22,.03,1.82,.14,7.48,1.03,14.9,2.2,22.29,.94,5.94,2.36,11.8,4.23,17.51,4.17,12.75,10.02,25.2,17.83,36.15,4.42,6.2,9.19,12.25,14.49,17.73,5.34,5.52,11.26,10.26,17.35,14.92,10.75,8.2,22.86,14.19,35.53,18.83,5.62,2.06,11.4,3.67,17.27,4.81,7.74,1.51,15.66,2.54,23.55,2.84,6.2,.24,12.42-.02,18.58-.77,7.92-.97,15.75-2.15,23.43-4.34,7.36-2.1,14.48-5.02,21.43-8.2,5.33-2.44,10.47-5.29,15.36-8.51,11.09-7.32,21.48-16.07,29.95-26.34,4.86-5.89,9.5-12.03,13.43-18.58,3.99-6.65,7.08-13.68,10.02-20.85,5.25-12.84,7.87-26.55,8.94-40.34,.48-6.2,.46-12.44-.06-18.63-.67-7.93-1.79-15.91-3.69-23.65Zm-41.98,45.64c-1.3,8.01-3.45,15.86-6.41,23.42-3.27,7.18-7.27,13.99-11.93,20.36-4.93,6.04-10.46,11.57-16.5,16.5-6.36,4.66-13.18,8.66-20.36,11.93-7.56,2.96-15.41,5.11-23.42,6.41-8.18,.87-16.43,.87-24.6,0-8.01-1.3-15.86-3.45-23.42-6.41-7.18-3.27-13.99-7.27-20.36-11.93-6.04-4.93-11.56-10.46-16.5-16.5-4.66-6.36-8.66-13.18-11.93-20.36-2.96-7.56-5.11-15.42-6.41-23.43-.43-4.08-.66-8.18-.67-12.29,0-4.11,.23-8.21,.67-12.29,1.3-8.01,3.45-15.87,6.41-23.43,3.27-7.18,7.27-13.99,11.93-20.36,4.93-6.04,10.46-11.56,16.5-16.5,6.36-4.66,13.18-8.66,20.36-11.93,7.56-2.96,15.41-5.1,23.42-6.41,8.18-.87,16.43-.87,24.6,0,8.01,1.3,15.86,3.45,23.42,6.41,7.18,3.27,13.99,7.27,20.36,11.93,6.04,4.93,11.57,10.46,16.5,16.5,4.66,6.36,8.66,13.18,11.93,20.36,2.96,7.56,5.11,15.41,6.41,23.42,.87,8.18,.87,16.43,0,24.6Z"/><path class="d" d="M1717.67,900.43c-1.56,0-3.12-.03-4.68-.09-7.69-.3-15.87-1.28-24.31-2.93-6.12-1.19-12.19-2.89-18.04-5.03-14.51-5.31-26.56-11.71-36.85-19.55-5.95-4.54-12.24-9.55-17.92-15.41-4.88-5.05-9.78-11.04-14.96-18.3-7.65-10.72-13.88-23.34-18.51-37.5-1.94-5.94-3.43-12.09-4.41-18.28-1.41-8.89-2.13-16.16-2.26-22.88-.04-.75-.05-1.44-.03-2.1,.02-8.73,1.11-17.05,2.18-24.04,1.98-13.03,6.5-26.67,13.42-40.54,2.66-5.33,5.76-10.52,9.2-15.4,5.05-7.17,9.91-13.18,14.88-18.38,4.09-4.28,8.64-8.37,13.52-12.15,6.82-5.29,12.7-9.56,19.25-13.21,6.28-3.51,13.42-6.74,21.81-9.87,5.83-2.18,11.88-3.9,17.99-5.14,15.53-3.13,30.23-3.93,43.68-2.36,7.23,.84,15.76,2.02,24.23,4.38,8.41,2.35,16.27,5.7,22.18,8.36,11.83,5.32,23.57,13.12,34.89,23.17,4.44,3.94,8.61,8.24,12.41,12.79,5.74,6.87,10.3,13.13,13.95,19.13,4.29,7.05,7.56,14.49,10.46,21.48,2.35,5.66,4.26,11.49,5.7,17.33h0c1.81,7.36,3.05,15.35,3.81,24.43,.54,6.44,.56,12.98,.06,19.44-1.23,15.89-4.27,29.58-9.29,41.85-2.85,6.97-6.08,14.4-10.36,21.53-3.58,5.97-7.98,12.06-13.86,19.2-8.23,9.97-18.68,19.17-31.06,27.33-5.1,3.36-10.49,6.35-16.04,8.89-8.48,3.88-15.51,6.57-22.13,8.46-8.21,2.35-16.48,3.55-24.19,4.5-4.85,.6-9.78,.9-14.7,.9Zm.14-273.94c-8.84,0-18.17,.98-27.9,2.95-5.59,1.13-11.13,2.71-16.47,4.7-7.91,2.95-14.59,5.97-20.43,9.23-6,3.35-11.53,7.37-17.99,12.38-4.49,3.48-8.66,7.23-12.41,11.16-4.62,4.83-9.18,10.47-13.94,17.23-3.15,4.47-5.99,9.22-8.43,14.11-6.46,12.93-10.66,25.57-12.48,37.58-1.01,6.65-2.05,14.53-2.06,22.64v.18c-.02,.39-.01,.82,.02,1.33v.21c.12,6.27,.81,13.13,2.15,21.6,.9,5.67,2.26,11.3,4.04,16.74,4.32,13.2,10.09,24.9,17.15,34.8,4.89,6.86,9.48,12.47,14.01,17.16,5.21,5.39,11.15,10.11,16.79,14.42,9.48,7.23,20.67,13.15,34.22,18.11,5.35,1.96,10.91,3.51,16.51,4.6,7.94,1.55,15.61,2.48,22.78,2.75,5.94,.23,11.92-.02,17.78-.74,7.31-.9,15.11-2.03,22.66-4.19,6.12-1.75,12.71-4.27,20.72-7.94,5.08-2.32,10.02-5.06,14.69-8.14,11.55-7.62,21.26-16.15,28.85-25.35,5.56-6.74,9.69-12.45,13-17.97,3.93-6.56,6.98-13.57,9.68-20.17,4.62-11.3,7.43-24,8.58-38.84,.46-5.92,.44-11.92-.06-17.83-.72-8.55-1.88-16.03-3.56-22.88-1.31-5.34-3.07-10.69-5.22-15.88-2.74-6.62-5.83-13.64-9.76-20.11-3.39-5.57-7.67-11.43-13.08-17.91-3.48-4.17-7.31-8.12-11.38-11.73-10.56-9.38-21.45-16.62-32.35-21.53-5.59-2.51-13-5.68-20.77-7.85-7.8-2.18-15.85-3.29-22.7-4.08-4.09-.48-8.31-.71-12.65-.71Zm-.13,228.52c-4.29,0-8.57-.23-12.83-.68l-.28-.04c-8.35-1.36-16.57-3.61-24.44-6.69l-.25-.11c-7.45-3.39-14.59-7.58-21.24-12.44l-.21-.16c-6.28-5.13-12.07-10.92-17.21-17.21l-.16-.21c-4.87-6.65-9.05-13.79-12.44-21.24l-.11-.25c-3.08-7.87-5.33-16.1-6.69-24.45l-.04-.28c-.45-4.28-.69-8.59-.69-12.81,0-4.24,.24-8.55,.69-12.83l.04-.27c1.36-8.35,3.61-16.58,6.69-24.45l.11-.25c3.39-7.44,7.58-14.59,12.44-21.24l.16-.21c5.13-6.29,10.92-12.07,17.21-17.21l.21-.16c6.65-4.86,13.79-9.05,21.24-12.44l.25-.11c7.87-3.08,16.1-5.33,24.44-6.69l.28-.04c8.51-.9,17.15-.9,25.66,0l.28,.04c8.35,1.36,16.57,3.61,24.44,6.69l.25,.11c7.45,3.39,14.59,7.58,21.24,12.44l.21,.16c6.28,5.13,12.07,10.92,17.21,17.21l.16,.21c4.87,6.65,9.05,13.79,12.44,21.24l.11,.25c3.08,7.87,5.33,16.09,6.69,24.44l.04,.28c.9,8.51,.9,17.15,0,25.66l-.04,.28c-1.36,8.35-3.61,16.57-6.69,24.44l-.11,.25c-3.39,7.44-7.58,14.59-12.44,21.24l-.16,.21c-5.13,6.28-10.92,12.07-17.21,17.21l-.21,.16c-6.65,4.87-13.79,9.05-21.24,12.44l-.25,.11c-7.87,3.08-16.09,5.33-24.44,6.69l-.28,.04c-4.26,.45-8.54,.68-12.83,.68Zm-11.64-10.61c7.72,.81,15.55,.81,23.27,0,7.56-1.24,15.01-3.28,22.14-6.06,6.74-3.08,13.22-6.87,19.25-11.28,5.69-4.66,10.94-9.91,15.6-15.6,4.4-6.03,8.2-12.5,11.28-19.24,2.78-7.13,4.82-14.58,6.06-22.14,.81-7.72,.81-15.55,0-23.27-1.24-7.56-3.28-15.01-6.06-22.14-3.08-6.74-6.87-13.21-11.28-19.24-4.66-5.69-9.91-10.94-15.6-15.6-6.03-4.4-12.5-8.2-19.25-11.28-7.13-2.78-14.58-4.82-22.14-6.06-7.72-.81-15.55-.81-23.27,0-7.56,1.24-15.01,3.28-22.14,6.06-6.74,3.08-13.21,6.87-19.24,11.28-5.69,4.66-10.94,9.91-15.6,15.6-4.4,6.03-8.2,12.51-11.28,19.25-2.78,7.13-4.82,14.58-6.06,22.15-.41,3.89-.62,7.81-.62,11.64,0,3.81,.22,7.73,.62,11.62,1.24,7.56,3.28,15.01,6.06,22.15,3.08,6.74,6.87,13.22,11.28,19.25,4.66,5.69,9.91,10.94,15.6,15.6,6.03,4.4,12.5,8.2,19.25,11.28,7.13,2.78,14.58,4.82,22.14,6.06Z"/></g><g><path class="d" d="M1782.4,753.26c-.49-4.15-.96-8.39-2.11-12.43-1.12-3.93-2.81-7.74-4.51-11.43-.91-1.98-1.97-3.88-3.16-5.69-2.19-3.31-4.65-6.49-7.29-9.45-1.47-1.65-3.08-3.19-4.79-4.6-3.1-2.54-6.29-5.11-9.75-7.18-3.45-2.06-7.23-3.54-10.94-5.06-5.96-2.43-12.43-3.37-18.81-3.87-2.29-.18-4.6-.18-6.9,.02-4.12,.34-8.31,.86-12.34,1.82-2.21,.53-4.36,1.25-6.45,2.11-3.77,1.55-7.59,3.05-11.08,5.17-3.39,2.07-6.54,4.59-9.59,7.11-1.66,1.38-3.22,2.88-4.66,4.49-4.12,4.62-8.04,9.77-10.6,15.46-1.64,3.66-3.32,7.4-4.41,11.28-1.12,3.99-1.58,8.17-2.06,12.26-.28,2.35-.38,4.7-.28,7.06,.18,4.22,.78,8.46,1.61,12.59,.44,2.17,1.05,4.31,1.83,6.38,1.4,3.74,2.94,7.53,4.88,11.04,1.97,3.56,4.51,6.68,7.01,9.88,1.33,1.7,2.75,3.32,4.31,4.82,2.86,2.74,6.1,5.17,9.3,7.46,1.81,1.3,3.72,2.45,5.72,3.45,5.59,2.8,11.61,5.28,17.83,6.24,3.59,.55,7.21,1.09,10.84,1.24,.55,.04,1.1,.07,1.65,.06,.92,.03,1.82,0,2.7-.1,3.34-.2,6.68-.71,9.97-1.23,2.26-.36,4.49-.9,6.66-1.62,3.81-1.27,7.57-2.86,11.15-4.67,1.94-.98,3.8-2.1,5.56-3.37,3.25-2.32,6.54-4.79,9.43-7.58,2.9-2.81,5.31-6.08,7.74-9.29,3.76-4.98,6.24-10.66,8.4-16.49,.79-2.14,1.41-4.33,1.84-6.57,.79-4.08,1.39-8.26,1.55-12.42,.09-2.3-.02-4.59-.28-6.88Zm-64.72,24.83c-.86,0-1.72-.04-2.58-.09-1.69-.35-3.36-.8-5-1.36-1.52-.77-2.99-1.62-4.4-2.56-1.28-1.14-2.5-2.36-3.64-3.64-.94-1.42-1.79-2.89-2.56-4.4-.55-1.63-1-3.3-1.35-4.98-.1-1.73-.1-3.46,0-5.19,.35-1.69,.8-3.35,1.35-4.98,.77-1.52,1.62-2.99,2.56-4.4,1.14-1.28,2.36-2.5,3.64-3.64,1.42-.94,2.89-1.79,4.4-2.56,1.63-.55,3.3-1,4.98-1.35,1.73-.1,3.46-.1,5.19,0,1.69,.35,3.35,.8,4.98,1.35,1.52,.77,2.99,1.62,4.4,2.56,1.28,1.14,2.5,2.36,3.64,3.64,.94,1.42,1.79,2.89,2.56,4.4,.55,1.63,1,3.3,1.35,4.98,.1,1.73,.1,3.46,0,5.19-.35,1.69-.8,3.35-1.35,4.98-.77,1.52-1.62,2.99-2.56,4.4-1.14,1.28-2.36,2.5-3.64,3.64-1.42,.94-2.89,1.79-4.4,2.56-1.64,.55-3.31,1-5,1.36-.86,.05-1.72,.09-2.58,.09Z"/><path class="d" d="M1718.32,828.5c-.24,0-.49,0-.73-.01-.58,0-1.19-.02-1.86-.07-3.75-.16-7.34-.68-11.31-1.29-7.63-1.17-14.67-4.39-19.31-6.71-2.22-1.11-4.37-2.41-6.39-3.85-3.28-2.35-6.74-4.93-9.85-7.92-1.66-1.59-3.22-3.34-4.79-5.35l-.78-1c-2.31-2.95-4.7-6-6.66-9.53-2.18-3.94-3.85-8.13-5.19-11.71-.87-2.32-1.56-4.72-2.05-7.14-.95-4.68-1.53-9.18-1.71-13.37-.11-2.55,0-5.2,.31-7.87l.07-.58c.48-4.07,.97-8.27,2.14-12.44,1.19-4.23,2.95-8.16,4.65-11.96,2.43-5.41,6.06-10.73,11.44-16.76,1.6-1.79,3.35-3.48,5.2-5.01,2.95-2.44,6.41-5.23,10.17-7.53,3.54-2.16,7.26-3.68,10.85-5.15l.93-.38c2.42-.99,4.84-1.78,7.19-2.35,3.72-.89,7.88-1.51,13.09-1.94,2.56-.21,5.15-.22,7.7-.02,5.74,.45,13.24,1.34,20.31,4.23l.9,.37c3.55,1.44,7.22,2.94,10.72,5.03,3.71,2.22,7.02,4.86,10.36,7.6,1.91,1.57,3.71,3.3,5.35,5.14,2.83,3.17,5.43,6.54,7.72,10.02,1.34,2.03,2.53,4.17,3.54,6.36,1.75,3.82,3.56,7.9,4.77,12.15,1.22,4.27,1.72,8.57,2.21,12.74l.06,.48c.31,2.6,.41,5.18,.31,7.66-.16,4-.69,8.31-1.64,13.18-.48,2.5-1.18,4.97-2.06,7.35-2.05,5.54-4.73,11.98-9.1,17.77l-.48,.63c-2.35,3.12-4.78,6.34-7.77,9.24-3.13,3.03-6.66,5.66-9.99,8.05-1.97,1.41-4.06,2.67-6.22,3.76-3.94,1.99-7.92,3.66-11.84,4.96-2.42,.8-4.93,1.41-7.45,1.81-3.44,.54-6.82,1.05-10.33,1.27-.83,.09-1.66,.13-2.48,.13Zm-.56-10.01h.11c.64,.03,1.28,0,1.96-.07l.25-.02c3.11-.19,6.27-.66,9.5-1.17,1.99-.31,3.96-.79,5.86-1.43,3.45-1.14,6.97-2.62,10.47-4.39,1.7-.86,3.35-1.86,4.9-2.97,3.03-2.17,6.19-4.53,8.86-7.11,2.43-2.35,4.53-5.13,6.74-8.07l.48-.64c3.59-4.75,5.91-10.36,7.7-15.21,.69-1.87,1.24-3.82,1.62-5.79,.85-4.37,1.33-8.19,1.46-11.67,.08-1.96,0-4.01-.25-6.1h0l-.06-.49c-.44-3.77-.9-7.67-1.89-11.16-1.02-3.57-2.59-7.11-4.25-10.72-.79-1.73-1.73-3.42-2.79-5.02-2.03-3.07-4.34-6.06-6.85-8.88-1.3-1.45-2.72-2.82-4.23-4.06-3.04-2.49-6.02-4.89-9.15-6.75-2.85-1.7-6.01-2.99-9.36-4.35l-.91-.37c-5.79-2.37-12.29-3.12-17.32-3.52-2.02-.16-4.07-.15-6.09,.01-4.69,.39-8.37,.93-11.59,1.7-1.85,.44-3.77,1.07-5.72,1.87l-.94,.39c-3.38,1.38-6.57,2.69-9.44,4.43-3.2,1.95-6.2,4.37-9,6.69-1.47,1.21-2.85,2.54-4.11,3.96-4.68,5.24-7.78,9.75-9.77,14.18-1.57,3.49-3.17,7.07-4.16,10.59-.96,3.42-1.41,7.23-1.84,10.91l-.07,.58c-.25,2.14-.33,4.24-.25,6.26,.16,3.67,.67,7.64,1.52,11.82,.39,1.91,.93,3.8,1.61,5.62,1.21,3.24,2.7,7,4.57,10.38,1.57,2.83,3.61,5.44,5.78,8.2l.8,1.02c1.27,1.63,2.53,3.03,3.83,4.29,2.66,2.55,5.78,4.87,8.75,7,1.6,1.14,3.29,2.17,5.04,3.04,4.04,2.02,10.12,4.81,16.36,5.77,3.7,.57,7.03,1.05,10.29,1.19h.16c.42,.04,.83,.06,1.26,.06h.1Zm-.08-35.4h-.02c-.9,0-1.84-.04-2.86-.1l-.36-.02-.36-.08c-1.91-.4-3.79-.91-5.57-1.51l-.34-.12-.32-.16c-1.72-.87-3.37-1.83-4.91-2.86l-.55-.43c-1.42-1.27-2.79-2.63-4.06-4.05l-.43-.55c-1.03-1.54-1.99-3.19-2.86-4.91l-.16-.32-.12-.34c-.6-1.78-1.11-3.65-1.51-5.56l-.08-.36-.02-.37c-.11-1.92-.11-3.87,0-5.79l.02-.37,.08-.36c.4-1.91,.91-3.78,1.51-5.56l.12-.34,.16-.32c.87-1.72,1.83-3.37,2.86-4.91l.43-.55c1.27-1.42,2.63-2.79,4.05-4.05l.55-.43c1.54-1.02,3.19-1.99,4.91-2.86l.32-.16,.34-.12c1.77-.6,3.65-1.11,5.56-1.51l.36-.08,.37-.02c1.92-.11,3.87-.11,5.79,0l.37,.02,.36,.08c1.91,.4,3.78,.91,5.56,1.51l.34,.12,.32,.16c1.72,.87,3.37,1.83,4.91,2.86l.55,.43c1.42,1.27,2.79,2.63,4.05,4.05l.43,.55c1.02,1.54,1.99,3.19,2.86,4.91l.16,.32,.12,.34c.6,1.78,1.11,3.65,1.51,5.56l.08,.36,.02,.37c.11,1.92,.11,3.87,0,5.79l-.02,.37-.08,.36c-.4,1.91-.91,3.78-1.51,5.56l-.12,.34-.16,.32c-.87,1.71-1.83,3.37-2.86,4.91l-.43,.55c-1.27,1.42-2.63,2.79-4.06,4.05l-.55,.43c-1.54,1.02-3.19,1.99-4.91,2.86l-.32,.16-.34,.12c-1.78,.6-3.66,1.11-5.57,1.51l-.36,.08-.36,.02c-1.03,.06-1.97,.1-2.86,.1h-.02Zm-1.91-10.06c.69,.04,1.31,.06,1.91,.06,.6,0,1.23-.02,1.91-.06,1.28-.28,2.53-.62,3.73-1.01,1.15-.6,2.25-1.24,3.29-1.91,.95-.86,1.87-1.78,2.73-2.73,.68-1.04,1.32-2.14,1.91-3.29,.39-1.19,.73-2.43,1.01-3.7,.06-1.28,.06-2.58,0-3.86-.28-1.27-.62-2.52-1.01-3.7-.6-1.15-1.24-2.25-1.91-3.29-.86-.95-1.78-1.87-2.73-2.73-1.04-.68-2.14-1.32-3.29-1.91-1.19-.39-2.43-.73-3.7-1.01-1.28-.06-2.58-.06-3.87,0-1.27,.28-2.52,.62-3.7,1.01-1.15,.59-2.25,1.24-3.29,1.91-.95,.86-1.87,1.78-2.73,2.73-.68,1.04-1.32,2.14-1.91,3.29-.39,1.19-.73,2.43-1.01,3.7-.06,1.28-.06,2.58,0,3.86,.28,1.28,.62,2.52,1.01,3.7,.59,1.15,1.24,2.25,1.91,3.29,.86,.95,1.78,1.87,2.73,2.73,1.04,.68,2.14,1.32,3.29,1.91,1.2,.39,2.45,.73,3.73,1.01Z"/></g><g><path class="d" d="M670.57,660.59c-4.44-4.08-9.9-6.65-16.05-6.65h-115.26v-93.53c0-5.38,.05-10.76,0-16.14,0-.08,0-.15,0-.23,.12-3.13-.53-6.04-1.96-8.75-.92-2.81-2.48-5.25-4.69-7.31-2.06-2.21-4.49-3.78-7.31-4.69-2.71-1.42-5.62-2.07-8.75-1.96-5.87,.26-11.96,2.19-16.05,6.65-4.08,4.44-6.65,9.9-6.65,16.05v116.23c0,5.38-.05,10.76,0,16.14,0,.08,0,.15,0,.23-.12,3.13,.53,6.04,1.96,8.75,.92,2.81,2.48,5.25,4.69,7.31,4.44,4.08,9.9,6.65,16.05,6.65h120.99c5.58,0,11.16,.05,16.73,0,.08,0,.16,0,.24,0,3.13,.12,6.04-.53,8.75-1.96,2.81-.92,5.25-2.48,7.31-4.69,2.21-2.06,3.78-4.49,4.69-7.31,1.42-2.71,2.07-5.62,1.96-8.75-.26-5.87-2.19-11.96-6.65-16.05Z"/><path class="d" d="M648.7,704.36c-1.86,0-3.73,0-5.59-.01-1.85,0-3.71-.01-5.56-.01h-120.99c-7.04,0-13.76-2.75-19.43-7.97-2.75-2.55-4.74-5.59-5.93-9.04-1.68-3.34-2.46-6.97-2.34-10.79v-.1c-.03-3.59-.02-7.2-.01-10.81,0-1.79,.01-3.58,.01-5.36v-116.23c0-7.04,2.75-13.76,7.97-19.43,4.56-4.97,11.49-7.9,19.51-8.26,3.88-.15,7.55,.64,10.92,2.33,3.4,1.18,6.39,3.12,8.89,5.78,2.66,2.51,4.6,5.5,5.78,8.9,1.68,3.35,2.46,6.97,2.33,10.79v.07c.03,3.63,.02,7.23,.01,10.84,0,1.79-.01,3.58-.01,5.37v88.53h110.26c7.04,0,13.76,2.75,19.43,7.97h0c4.97,4.56,7.9,11.49,8.26,19.51,.15,3.89-.64,7.55-2.33,10.92-1.17,3.4-3.12,6.39-5.78,8.89-2.51,2.66-5.5,4.6-8.89,5.78-3.34,1.68-6.97,2.46-10.78,2.34h-.12c-1.87,.02-3.73,.02-5.6,.02Zm-131.43-178.03c-.18,0-.35,0-.53,.01-3.07,.14-8.83,.98-12.56,5.03-3.54,3.85-5.33,8.12-5.33,12.67v116.23c0,1.8,0,3.6-.01,5.39-.01,3.57-.02,7.14,.01,10.7v.46c-.09,2.26,.36,4.3,1.38,6.23l.2,.38,.13,.4c.65,2.01,1.75,3.71,3.34,5.19,3.83,3.52,8.1,5.31,12.65,5.31h120.99c1.86,0,3.73,0,5.59,.01,3.7,.01,7.4,.02,11.1-.01h.47c2.26,.09,4.3-.36,6.23-1.38l.38-.2,.4-.13c2.01-.65,3.71-1.75,5.19-3.34l.26-.26c1.59-1.48,2.69-3.18,3.34-5.19l.13-.4,.2-.38c1.02-1.94,1.47-3.97,1.38-6.23-.14-3.07-.98-8.83-5.03-12.56h0c-3.85-3.54-8.12-5.33-12.67-5.33h-120.26v-98.53c0-1.8,0-3.6,.01-5.39,.01-3.57,.02-7.14-.01-10.7v-.46c.09-2.26-.36-4.3-1.38-6.23l-.2-.38-.13-.4c-.65-2.01-1.75-3.71-3.34-5.19l-.26-.26c-1.48-1.59-3.18-2.69-5.19-3.34l-.4-.13-.38-.2c-1.78-.94-3.65-1.4-5.7-1.4Z"/></g><g><path class="d" d="M1142.04,699.34h244.24c18.25,0,36.52,.3,54.76,0,.25,0,.49,0,.74,0,12.27,0,22.7-10.4,22.7-22.7V66.97c0-19.06,0,8.13,0-10.93,0-9.01,.09-18.02,0-27.03,0-.39,0-.79,0-1.18,0-12.27-10.4-22.7-22.7-22.7h-317.88c-14.63,0-29.29-.26-43.91,0-.21,0-.42,0-.63,0H539.32c-7.3,0-14.6-.06-21.89,0-.32,0-.64,0-.96,0-12.27,0-22.7,10.4-22.7,22.7V119.74c0,11.87,10.44,23.25,22.7,22.7,12.3-.55,22.7-9.97,22.7-22.7v-46.71c0-22.92,0,.41,0-22.51h517.33c7.3,0,14.6,.06,21.89,0,.32,0,.64,0,.96,0h317.88c7.27,0,14.56,.09,21.84,.14V648.42c0,1.84,0,3.68-.01,5.51h-375.02c-18.25,0-36.52-.3-54.76,0-.25,0-.49,0-.74,0-11.87,0-23.25,10.44-22.7,22.7,.55,12.3,9.97,22.7,22.7,22.7h153.5Z"/><path class="d" d="M1422.76,704.47c-6.14,0-12.25-.03-18.26-.07-6.08-.03-12.15-.07-18.22-.07h-397.73c-14.84,0-27.01-12.07-27.7-27.48-.31-6.9,2.34-13.65,7.46-19,5.42-5.67,12.8-8.92,20.24-8.92h.66c12.22-.2,24.62-.13,36.62-.07,6.08,.03,12.15,.07,18.22,.07h370.03V55.62c-.73,0-1.47-.01-2.2-.02-4.88-.04-9.77-.08-14.64-.08h-318.79c-4.9,.04-9.86,.03-14.65,.01-2.43,0-4.86-.01-7.28-.01H544.17V119.74c0,14.84-12.07,27.01-27.48,27.7-6.9,.31-13.65-2.34-19-7.46-5.67-5.42-8.92-12.8-8.92-20.24V27.82c0-15.02,12.69-27.7,27.7-27.7h.91c4.9-.04,9.86-.03,14.66-.01,2.43,0,4.85,.01,7.28,.01h540.57c9.82-.18,19.77-.12,29.4-.06,4.87,.03,9.74,.06,14.6,.06h317.88c15.02,0,27.7,12.69,27.7,27.7v1.13c.06,6.04,.04,12.17,.02,18.09,0,3-.02,6-.02,8.99V676.64c0,15.02-12.69,27.7-27.7,27.7h-.66c-6.1,.1-12.25,.13-18.36,.13Zm-434.21-45.53c-4.66,0-9.52,2.18-13.01,5.83-3.21,3.36-4.88,7.49-4.69,11.65,.46,10.22,8.07,17.92,17.71,17.92h397.73c6.09,0,12.18,.03,18.28,.07,11.94,.07,24.3,.13,36.4-.07,.2,0,.4,0,.6,0h.22c9.59,0,17.7-8.1,17.7-17.7V56.03c0-3.01,0-6.02,.02-9.03,.02-5.89,.04-11.98-.02-17.96,0-.28,0-.57,0-.85v-.38c0-9.59-8.1-17.7-17.7-17.7h-317.88c-4.89,0-9.77-.03-14.66-.06-9.57-.06-19.47-.12-29.16,.06-.18,0-.36,0-.54,0H539.32c-2.44,0-4.87,0-7.31-.01-4.77-.01-9.7-.03-14.54,.01h-1c-9.59,0-17.7,8.11-17.7,17.7V119.74c0,4.66,2.18,9.52,5.83,13.01,3.36,3.21,7.49,4.89,11.65,4.69,10.22-.46,17.92-8.07,17.92-17.71V45.52h522.33c2.44,0,4.87,0,7.31,.01,4.77,.01,9.7,.03,14.54-.01h318.88c4.9,0,9.81,.04,14.73,.08,2.38,.02,4.77,.04,7.15,.05l4.97,.03V648.42c0,1.84,0,3.69-.01,5.53l-.02,4.98h-380c-6.09,0-12.18-.03-18.28-.07-11.94-.07-24.3-.13-36.41,.07-.2,0-.4,0-.6,0h-.22Z"/></g><g><path class="d" d="M1524.6,735.75h-489.29c-6.61,0-13.22-.05-19.83,0-.29,0-.58,0-.87,0-5.82,0-11.94,2.53-16.05,6.65-3.94,3.94-6.9,10.4-6.65,16.05,.55,12.3,9.97,22.7,22.7,22.7h489.29c6.61,0,13.22,.05,19.83,0,.29,0,.58,0,.87,0,5.82,0,11.94-2.53,16.05-6.65s6.9-10.4,6.65-16.05c-.55-12.3-9.97-22.7-22.7-22.7Z"/><path class="d" d="M1517.11,786.17c-2.22,0-4.44,0-6.61-.01-2.2,0-4.4-.01-6.6-.01h-489.29c-14.84,0-27.01-12.07-27.7-27.48-.3-6.7,2.96-14.66,8.11-19.81,5.08-5.08,12.4-8.11,19.59-8.11h.82c4.44-.03,8.93-.02,13.28-.01,2.2,0,4.4,.01,6.6,.01h489.29c14.84,0,27,12.07,27.7,27.48,.3,6.7-2.96,14.66-8.11,19.81-5.08,5.08-12.4,8.11-19.59,8.11h-.83c-2.22,.02-4.45,.02-6.67,.02Zm-502.5-45.42c-4.52,0-9.32,1.99-12.52,5.18-3.18,3.18-5.37,8.35-5.19,12.29,.46,10.22,8.07,17.92,17.71,17.92h489.29c2.21,0,4.42,0,6.62,.01,4.32,.01,8.79,.02,13.17-.01h.91c4.52,0,9.32-1.99,12.52-5.18,3.18-3.18,5.37-8.35,5.19-12.29-.46-10.22-8.07-17.92-17.71-17.92h-489.29c-2.21,0-4.42,0-6.62-.01-4.32-.01-8.79-.02-13.17,.01h-.91Z"/></g><g><path class="d" d="M644.5,742.4c-4.44-4.08-9.9-6.65-16.05-6.65h-90.89c-3.13-.12-6.04,.53-8.75,1.96-2.81,.92-5.25,2.48-7.31,4.69-2.21,2.06-3.78,4.49-4.69,7.31-1.42,2.71-2.07,5.62-1.96,8.75,.26,5.87,2.19,11.96,6.65,16.05,4.44,4.08,9.9,6.65,16.05,6.65h90.89c3.13,.12,6.04-.53,8.75-1.95,2.81-.92,5.25-2.48,7.31-4.69,2.21-2.06,3.78-4.49,4.69-7.31,1.42-2.71,2.07-5.62,1.96-8.75-.26-5.87-2.19-11.96-6.65-16.05Z"/><path class="d" d="M629.16,786.16c-.27,0-.53,0-.8-.01h-90.8c-7.04,0-13.76-2.75-19.43-7.97-4.97-4.56-7.9-11.49-8.26-19.51-.15-3.89,.64-7.55,2.33-10.92,1.17-3.4,3.12-6.39,5.78-8.89,2.51-2.66,5.5-4.6,8.89-5.78,3.34-1.68,6.98-2.46,10.78-2.34h90.8c7.04,0,13.76,2.75,19.43,7.97h0c4.97,4.56,7.9,11.49,8.26,19.51,.15,3.89-.64,7.55-2.33,10.92-1.18,3.4-3.12,6.39-5.78,8.9-2.51,2.66-5.5,4.6-8.89,5.78-3.11,1.56-6.46,2.35-9.98,2.35Zm-92.32-45.43c-2.05,0-3.92,.46-5.7,1.4l-.38,.2-.4,.13c-2.01,.65-3.71,1.75-5.19,3.34l-.26,.26c-1.59,1.48-2.69,3.18-3.34,5.19l-.13,.4-.2,.38c-1.02,1.94-1.47,3.98-1.39,6.23,.14,3.07,.98,8.83,5.03,12.56,3.85,3.54,8.12,5.33,12.67,5.33h91.07c2.26,.09,4.3-.36,6.23-1.38l.38-.2,.4-.13c2.01-.65,3.71-1.75,5.19-3.34l.26-.26c1.59-1.48,2.69-3.18,3.34-5.19l.13-.4,.2-.38c1.02-1.94,1.47-3.97,1.38-6.23-.14-3.07-.98-8.83-5.03-12.56h0c-3.85-3.54-8.12-5.33-12.67-5.33h-91.07c-.18-.01-.35-.01-.53-.01Z"/></g></g><path class="b" d="M2475.87,339.54h-108.98l-20.31,116.21h-57.23l49.41-284.38h180.08l-8.4,47.46h-122.66l-12.89,73.44h109.38l-8.4,47.27Z"/><path class="b" d="M2625.67,351.65h-46.48l-18.16,104.1h-57.23l49.41-284.38,94.14,.2c31.51,0,55.76,7.42,72.75,22.27s24.51,35.48,22.56,61.91c-2.73,39.06-23.57,66.21-62.5,81.45l40.04,115.43v3.12h-60.94l-33.59-104.1Zm-38.28-47.46l42.58,.39c15.1-.26,27.57-4.33,37.4-12.21,9.83-7.88,15.72-18.58,17.68-32.13,1.82-12.63-.2-22.52-6.05-29.69-5.86-7.16-15.17-11-27.93-11.52l-48.83-.2-14.84,85.35Z"/><path class="b" d="M2941.1,332.51h-108.98l-13.28,76.17h128.12l-8.2,47.07h-185.35l49.41-284.38h184.96l-8.4,47.46h-127.54l-11.91,67.77h109.38l-8.2,45.9Z"/><path class="b" d="M3226.45,218.83h-84.38l-41.02,236.91h-57.23l41.02-236.91h-83.4l8.4-47.46h225l-8.4,47.46Z"/><path class="b" d="M3407.12,332.51h-108.98l-13.28,76.17h128.12l-8.2,47.07h-185.35l49.41-284.38h184.96l-8.4,47.46h-127.54l-11.91,67.77h109.38l-8.2,45.9Z"/><g><path class="d" d="M2437.72,848.94c-9.12,11.58-22.49,20.5-40.1,26.76-17.61,6.26-37.46,9.21-59.57,8.86-17.43-.12-32.76-3.95-45.97-11.49-13.22-7.55-23.63-18.39-31.23-32.55-7.61-14.15-11.93-30.3-12.98-48.43-1.17-16.85,.61-36.64,5.35-59.4,4.74-22.75,12.87-42.7,24.39-59.84,11.52-17.14,25.36-29.95,41.5-38.43,16.14-8.48,34.04-12.55,53.69-12.2,26.67,.47,47.55,7.98,62.64,22.55,15.09,14.56,23.69,35.42,25.79,62.56l-49.48-.18c-1.29-14.27-5.09-24.8-11.41-31.58-6.32-6.78-15.73-10.41-28.25-10.88-21.64-.7-38.69,8.8-51.15,28.51-12.46,19.71-19.57,48.28-21.32,85.72-1.17,20,1.9,35.51,9.21,46.5,7.31,11,18.45,16.61,33.43,16.85,17.43,.47,32.29-3.68,44.57-12.46l8.6-44.04h-46.68l6.84-38.78h97.56l-15.44,101.95Z"/><path class="d" d="M2341.5,887.59c-1.16,0-2.32,0-3.49-.03-17.84-.12-33.81-4.12-47.41-11.89-13.66-7.79-24.55-19.14-32.39-33.74-7.78-14.47-12.26-31.18-13.34-49.68-1.18-17.01,.64-37.27,5.41-60.18,4.79-23.03,13.15-43.52,24.84-60.9,11.75-17.47,26.08-30.73,42.59-39.41,16.52-8.68,35.09-12.9,55.14-12.54,27.33,.48,49.09,8.35,64.67,23.39,15.56,15.02,24.55,36.72,26.7,64.48l.25,3.24-55.47-.2-.25-2.72c-1.22-13.53-4.79-23.56-10.61-29.81-5.73-6.15-14.53-9.49-26.17-9.93-20.68-.68-36.54,8.2-48.5,27.12-12.12,19.18-19.14,47.52-20.86,84.26-1.13,19.28,1.8,34.31,8.71,44.7,6.79,10.22,16.92,15.29,30.98,15.51,16.27,.43,30.3-3.34,41.81-11.22l7.67-39.28h-46.61l7.9-44.78h103.57l-16.08,106.18-.49,.62c-9.44,11.98-23.38,21.31-41.45,27.73-16.93,6.02-36.14,9.06-57.13,9.06Zm29.01-262.38c-18.19,0-35,3.99-50.01,11.87-15.63,8.21-29.22,20.81-40.41,37.45-11.25,16.73-19.31,36.51-23.94,58.77-4.66,22.38-6.44,42.09-5.3,58.58,1.03,17.65,5.28,33.52,12.63,47.22,7.3,13.59,17.42,24.14,30.08,31.36,12.7,7.25,27.68,10.98,44.51,11.1,21.66,.34,41.36-2.58,58.55-8.69,16.67-5.92,29.53-14.39,38.25-25.18l14.8-97.71h-91.56l-5.78,32.78h46.74l-9.53,48.79-.97,.69c-12.77,9.12-28.39,13.49-46.39,13.02-15.92-.25-27.99-6.37-35.84-18.18-7.65-11.5-10.91-27.76-9.71-48.34,1.77-37.75,9.1-67.08,21.78-87.15,13.01-20.58,31.07-30.64,53.78-29.91,13.29,.5,23.5,4.48,30.35,11.83,6.33,6.8,10.34,17.1,11.92,30.64l43.5,.15c-2.46-24.7-10.72-43.99-24.6-57.39-14.46-13.95-34.85-21.25-60.61-21.71-.75-.01-1.5-.02-2.24-.02Z"/></g><g><path class="d" d="M2581.61,787.7h-41.76l-16.32,93.53h-51.41l44.39-255.49,84.58,.18c28.31,0,50.1,6.67,65.36,20,15.27,13.34,22.02,31.88,20.27,55.62-2.46,35.09-21.17,59.48-56.15,73.17l35.97,103.7v2.81h-54.75l-30.18-93.53Zm-34.39-42.64l38.25,.35c13.57-.23,24.77-3.89,33.6-10.97,8.83-7.08,14.13-16.7,15.88-28.87,1.64-11.35-.18-20.24-5.44-26.67-5.26-6.43-13.63-9.88-25.09-10.35l-43.87-.18-13.34,76.68Z"/><path class="d" d="M2669.54,884.23h-59.93l-30.18-93.53h-37.06l-16.32,93.53h-57.5l45.44-261.49,87.11,.18c28.92,0,51.57,6.98,67.33,20.74,15.94,13.93,23.1,33.48,21.29,58.1-2.47,35.27-21.09,60.38-55.37,74.66l35.2,101.49v6.31Zm-55.56-6h49.32l-36.51-105.25,2.69-1.05c34.12-13.35,51.86-36.44,54.25-70.59,1.67-22.66-4.8-40.54-19.25-53.16-14.63-12.78-35.96-19.26-63.39-19.26l-82.05-.17-43.35,249.48h45.33l16.32-93.53h46.47l30.18,93.53Zm-28.45-129.82l-41.87-.38,14.38-82.66,46.51,.19c12.3,.5,21.48,4.36,27.29,11.45,5.79,7.08,7.84,16.84,6.09,29-1.86,12.89-7.57,23.24-16.97,30.78-9.32,7.47-21.24,11.38-35.43,11.62Zm-34.74-6.32l34.72,.32c12.75-.22,23.44-3.69,31.7-10.31,8.29-6.65,13.13-15.46,14.79-26.95,1.5-10.43-.11-18.62-4.79-24.34-4.67-5.7-12.35-8.81-22.84-9.25l-41.28-.17-12.3,70.7Z"/></g><g><path class="d" d="M2846.57,828.59h-89.14l-26.32,52.64h-56.68l136.52-255.49h47.55l48.61,255.49h-52.47l-8.07-52.64Zm-68.08-42.64h61.59l-14.39-95.11-47.2,95.11Zm77.38-228.64h57.38l-55.8,54.4h-43.69l42.11-54.4Z"/><path class="d" d="M2910.73,884.23h-58.67l-8.07-52.64h-84.71l-26.32,52.64h-63.54l139.72-261.49h51.83l49.75,261.49Zm-53.52-6h46.27l-47.46-249.49h-43.27l-133.31,249.49h49.82l26.32-52.64h93.57l8.07,52.64Zm-13.65-89.28h-69.92l53.58-107.96,16.33,107.96Zm-60.24-6h53.26l-12.44-82.25-40.82,82.25Zm75.35-168.24h-51.03l46.76-60.4h66.23l-61.95,60.4Zm-38.8-6h36.36l49.65-48.4h-48.53l-37.47,48.4Z"/></g><g><path class="d" d="M3135.4,668.38h-75.8l-36.85,212.85h-51.41l36.85-212.85h-74.93l7.55-42.64h202.14l-7.55,42.64Z"/><path class="d" d="M3025.27,884.23h-57.5l36.85-212.85h-74.94l8.61-48.64h208.24l-8.61,48.64h-75.79l-36.85,212.85Zm-50.37-6h45.32l36.85-212.85h75.81l6.48-36.64h-196.05l-6.48,36.64h74.91l-36.85,212.85Z"/></g><g><path class="d" d="M3183.83,881.23h-51.41l44.22-255.49h51.41l-44.22,255.49Z"/><path class="d" d="M3186.35,884.23h-57.5l45.26-261.49h57.5l-45.26,261.49Zm-50.38-6h45.33l43.18-249.49h-45.32l-43.18,249.49Z"/></g><g><path class="d" d="M3372.99,812.97c2.46-13.92-4.39-24.57-20.53-31.94l-33.87-13.51c-39.31-17.55-57.97-41.7-55.98-72.47,.82-14.27,5.5-26.9,14.04-37.9,8.54-10.99,20.53-19.62,35.97-25.88,15.44-6.26,32.11-9.27,50.01-9.04,24.68,.47,44.63,7.81,59.84,22.02,15.21,14.21,22.69,33.25,22.46,57.12h-51.24c.58-11.58-1.96-20.59-7.63-27.02-5.68-6.43-14.48-9.77-26.41-10-11.7-.23-21.88,2.43-30.53,7.98-8.66,5.56-13.8,13.19-15.44,22.9-2.22,12.75,6.32,22.87,25.62,30.36l23.16,8.77,13.34,6.14c34.51,17.08,50.65,41.06,48.43,71.94-1.05,15.09-5.88,28.11-14.48,39.04-8.6,10.94-20.3,19.33-35.09,25.18-14.8,5.85-31.09,8.6-48.87,8.25-18.13-.35-34.28-4.15-48.43-11.41-14.16-7.25-24.92-17.49-32.29-30.71-6.9-12.28-10.12-26.32-9.65-42.11l51.41,.18c-1.64,27.72,11.99,41.82,40.88,42.29,12.52,0,22.81-2.75,30.88-8.25,8.07-5.5,12.87-12.81,14.39-21.93Z"/><path class="d" d="M3328.74,887.94c-1,0-2,0-3.01-.03-18.51-.36-35.25-4.31-49.74-11.74-14.63-7.49-25.91-18.23-33.54-31.92-7.14-12.7-10.51-27.39-10.03-43.66l.09-2.92,57.51,.2-.19,3.17c-.75,12.67,1.87,22.34,7.79,28.72,6.19,6.67,16.33,10.16,30.14,10.39,11.8,0,21.62-2.6,29.15-7.73,7.43-5.06,11.72-11.59,13.12-19.95v-.03c2.21-12.49-3.93-21.87-18.75-28.66l-33.91-13.53c-40.39-18.03-59.82-43.4-57.75-75.4,.85-14.8,5.78-28.11,14.66-39.55,8.83-11.37,21.35-20.39,37.21-26.82,15.74-6.38,32.97-9.51,51.17-9.26,25.35,.48,46.15,8.16,61.85,22.83,15.78,14.75,23.65,34.71,23.41,59.34l-.03,2.97h-57.36l.16-3.15c.54-10.72-1.78-19.09-6.89-24.89-5.07-5.75-13.22-8.77-24.22-8.99-11.03-.23-20.75,2.31-28.85,7.51-7.99,5.13-12.6,11.95-14.1,20.87-1.96,11.26,5.8,20.1,23.75,27.06l23.33,8.85,13.33,6.14c35.62,17.63,52.47,42.81,50.17,74.88-1.09,15.63-6.17,29.31-15.11,40.68-8.89,11.31-21.12,20.1-36.35,26.12-14.26,5.64-30.07,8.49-47.02,8.49Zm-90.37-84.25c0,14,3.14,26.65,9.31,37.63,7.04,12.64,17.49,22.56,31.04,29.51,13.67,7.01,29.53,10.74,47.12,11.08,17.31,.33,33.35-2.36,47.71-8.04,14.23-5.62,25.61-13.78,33.84-24.24,8.18-10.4,12.84-22.99,13.84-37.4,2.14-29.82-13.15-52.41-46.77-69.05l-13.16-6.06-23.07-8.74c-20.76-8.05-30-19.38-27.51-33.68,1.77-10.52,7.42-18.9,16.78-24.91,9.13-5.86,19.99-8.7,32.21-8.46,12.75,.25,22.37,3.96,28.6,11.02,5.65,6.41,8.49,15.14,8.46,26.01h45.14c-.41-21.51-7.63-38.97-21.5-51.92-14.58-13.62-34.04-20.76-57.84-21.21-17.4-.24-33.83,2.74-48.83,8.82-14.88,6.03-26.56,14.42-34.73,24.94-8.12,10.46-12.63,22.65-13.41,36.23-1.92,29.66,15.79,52.4,54.15,69.53l33.95,13.55c17.46,7.97,24.95,19.81,22.24,35.17-1.66,9.92-6.92,17.96-15.66,23.91-8.54,5.82-19.5,8.77-32.57,8.77-15.56-.25-27.15-4.39-34.49-12.31-6.55-7.06-9.74-17.14-9.51-29.99l-45.34-.15Z"/></g></svg>