<svg width="52" height="25" viewBox="0 0 52 25" fill="none" xmlns="http://www.w3.org/2000/svg">
<path d="M12.2604 25C19.0332 25 24.5238 19.3946 24.5238 12.5015C24.5237 5.5956 19.0332 0 12.2604 0C5.488 0 0 5.5956 0 12.5014C0 19.3945 5.488 25 12.2604 25Z" fill="#CC0A37"/>
<path d="M11.7666 7.0083V17.9787H15.1826V16.9931H12.7542V7.0083H11.7666Z" fill="white"/>
<path d="M8.34295 10.0073C9.15282 10.0073 9.81955 9.33693 9.81955 8.5092C9.81955 7.67703 9.15282 7.00525 8.34295 7.00525C7.53297 7.00525 6.87061 7.67714 6.87061 8.5092C6.87061 9.33703 7.53297 10.0073 8.34295 10.0073Z" fill="white"/>
<path d="M12.7538 2.04595C12.6194 2.04224 12.3868 2.04224 12.2605 2.04224C6.59975 2.04224 1.99463 6.72648 1.99463 12.4993C1.99463 15.2911 3.06492 17.9213 4.9978 19.8945C6.94015 21.8722 9.51192 22.9714 12.2605 22.9714C15.0031 22.9714 17.5785 21.8722 19.5194 19.8945C21.4523 17.9214 22.5167 15.2911 22.5167 12.4993V12.0212H15.1911V12.9924H21.5448C21.5448 13.012 21.5404 13.1187 21.5404 13.1406C21.2277 18.08 17.174 21.9785 12.2605 21.9785C9.77921 21.9785 7.43302 20.9967 5.67923 19.2107C3.92315 17.4207 2.95072 15.033 2.95072 12.4986C2.95072 9.96634 3.92335 7.58324 5.67923 5.79402C7.43312 4.00023 9.77942 3.01265 12.2607 3.01265C12.3708 3.01265 12.6321 3.01858 12.754 3.02102L12.7538 2.04595Z" fill="white"/>
<path d="M30.66 6.25024H34.2773V15.6272H39.6616V18.7501H30.6597L30.66 6.25024Z" fill="#929291"/>
<path d="M48.9049 17.5057C48.2669 18.5003 47.0892 19.0683 45.6011 19.0683C42.4081 19.0683 40.3311 16.4743 40.3311 12.4864C40.3311 8.42937 42.6848 5.93359 46.5327 5.93359C48.0878 5.93359 49.4048 6.35053 50.4122 7.14655C51.443 7.98011 51.8358 8.79447 51.9998 10.4408H48.2023C48.1042 9.47314 47.4006 8.85871 46.4513 8.85871C44.9961 8.85871 44.1422 10.241 44.1422 12.536C44.1422 14.8617 45.0292 16.257 46.5159 16.257C47.7119 16.257 48.3815 15.5947 48.6597 14.0943H46.3206V11.4683H51.9997V18.7499H48.9048V17.5057" fill="#929291"/>
</svg>
